<svg width="18px" height="14px" viewBox="0 0 18 14" version="1.1" xmlns="http://www.w3.org/2000/svg">
    <defs>
        <linearGradient id="maingrad" x1="0%" y1="50%" x2="100%" y2="50%" gradientUnits="userSpaceOnUse">
            <stop offset="0%" style="stop-color:rgb(34,209,238);stop-opacity:1"/>
            <stop offset="100%" style="stop-color:rgb(61,90,241);stop-opacity:1"/>
        </linearGradient>
    </defs>
    <path d="M6.59721185,7.5745563 C6.07814435,6.66861064 5.1093957,6.05928854 4,6.05928854 C2.34314575,6.05928854 1,7.41836092 1,9.09486166 C1,10.7713624 2.34314575,12.1304348 4,12.1304348 C4.33333333,12.1304348 4.66666667,12.1034519 5,12.0494862 C5.96071166,11.8566151 6.63513845,11.6812264 7.02328037,11.5233202 C8.12492616,11.075142 8.91282379,10.5033173 9.48010215,10.0358893 C9.67924722,9.87179711 9.85120348,9.73462243 10,9.60079051 C10.578483,9.08048609 11.0374599,8.53975925 11.4016172,8.00882215 M9.48,10.0358893 C10.2105708,11.0083561 11.6996367,12.1203162 13,12.1203162 C15.209139,12.1203162 17,10.3082197 17,8.07288538 C17,5.83755105 14.959139,4.0456917 12.75,4.0456917 C12.132342,2.27174375 10.4629464,1 8.5,1 C6.01471863,1 4,3.03860857 4,5.55335968 L4,6.05928854"
          stroke="url(#maingrad)" fill="none" fill-rule="evenodd" stroke-linecap="round" stroke-linejoin="round" transform="translate(0.000000, 0.500000)"/>
</svg>